<?xml version="1.0" standalone="no"?>
<!DOCTYPE svg PUBLIC "-//W3C//DTD SVG 20010904//EN"
 "http://www.w3.org/TR/2001/REC-SVG-20010904/DTD/svg10.dtd">
<svg version="1.0" xmlns="http://www.w3.org/2000/svg"
 width="400.000000pt" height="400.000000pt" viewBox="0 0 400.000000 400.000000"
 preserveAspectRatio="xMidYMid meet">
<metadata>
Created by potrace 1.11, written by Peter Selinger 2001-2013
</metadata>
<g transform="translate(0.000000,400.000000) scale(0.100000,-0.100000)"
fill="#000000" stroke="none">
<path d="M2204 3806 c-4 -9 -4 -26 -1 -37 4 -16 2 -19 -11 -13 -31 13 -326 17
-458 5 -145 -12 -214 -26 -389 -78 -186 -55 -385 -162 -385 -205 0 -30 26 -32
62 -5 52 40 216 115 298 137 272 73 282 75 521 90 236 15 409 -10 422 -60 4
-16 -2 -21 -32 -25 -53 -9 -66 -19 -66 -51 l0 -29 72 1 c86 2 136 25 141 66 2
18 -2 28 -15 32 -18 6 -42 41 -93 135 -26 48 -56 64 -66 37z"/>
<path d="M2585 3295 c-135 -14 -141 -15 -346 -88 l-125 -44 -20 30 c-10 17
-23 39 -29 49 -9 17 -19 18 -90 13 -68 -6 -83 -11 -100 -31 -17 -19 -30 -24
-68 -24 -25 0 -61 6 -79 14 -66 28 -185 55 -253 57 -111 3 -375 -9 -430 -21
-27 -5 -72 -14 -100 -19 -27 -5 -70 -15 -95 -21 -25 -7 -79 -20 -120 -29 -41
-10 -93 -25 -114 -34 -130 -57 -165 -73 -197 -93 -20 -13 -52 -30 -70 -38 -19
-9 -70 -38 -114 -65 -44 -28 -85 -50 -92 -51 -14 0 -64 -62 -88 -109 -12 -25
-16 -49 -13 -89 4 -46 9 -58 36 -79 21 -15 32 -33 32 -49 0 -17 8 -27 27 -35
14 -5 31 -16 37 -23 6 -8 25 -17 41 -20 17 -4 48 -11 70 -16 69 -15 243 -5
305 18 64 23 136 44 238 67 40 9 101 28 135 42 34 13 102 33 150 44 49 11 105
28 125 38 21 10 82 35 137 54 101 36 173 64 255 100 63 28 172 35 204 13 14
-9 32 -16 40 -16 30 0 30 -38 0 -270 -3 -25 -9 -48 -12 -52 -4 -4 -104 -10
-222 -14 -168 -5 -219 -10 -232 -21 -9 -8 -22 -12 -28 -8 -7 4 12 24 47 50
107 79 136 125 79 125 -24 0 -119 -60 -181 -113 -60 -52 -43 -81 99 -173 47
-31 80 -29 84 5 2 15 -3 30 -12 37 -13 9 23 13 165 18 99 4 183 5 187 2 6 -7
12 -86 7 -86 -2 0 -43 -11 -92 -24 -112 -30 -203 -87 -312 -195 -56 -55 -90
-99 -111 -143 -16 -35 -40 -81 -52 -104 -13 -22 -29 -56 -37 -75 -8 -19 -21
-42 -30 -52 -15 -17 -14 -20 5 -36 l21 -17 -22 -16 c-20 -15 -22 -15 -33 3 -7
10 -18 19 -26 19 -26 0 -106 -71 -121 -107 -23 -54 -24 -158 -2 -180 31 -31
52 -6 54 65 4 80 14 103 62 141 l41 33 0 -25 c0 -30 22 -55 56 -63 23 -6 24
-10 24 -81 0 -49 -6 -85 -16 -105 -13 -26 -17 -68 -17 -227 -1 -248 7 -283 80
-359 29 -30 56 -60 60 -67 5 -7 29 -31 56 -52 76 -63 169 -89 377 -105 96 -7
165 -14 152 -16 -33 -5 -24 -36 11 -40 26 -3 27 -5 27 -66 0 -62 16 -96 38
-82 6 3 9 -2 8 -12 -1 -12 7 -17 28 -17 21 -1 31 -7 37 -23 10 -27 45 -29 59
-2 6 11 7 37 4 61 -6 36 -5 41 12 37 30 -5 45 -46 29 -79 -25 -46 -66 -89
-109 -111 -68 -35 -219 -29 -258 10 -15 15 -16 23 -6 60 8 32 23 52 59 83 49
41 63 69 34 69 -8 0 -15 4 -15 9 0 17 -31 21 -58 7 -46 -24 -188 -186 -337
-383 l-55 -73 710 0 c391 0 710 3 710 8 -1 4 -22 39 -48 79 -55 84 -213 227
-262 238 -18 4 -73 26 -124 50 -50 23 -110 45 -133 49 -23 3 -59 18 -80 32
-31 21 -47 25 -91 22 l-53 -3 6 35 c11 63 15 70 43 70 85 0 283 54 367 100
160 87 192 112 225 177 14 26 33 59 43 73 29 41 38 133 38 360 0 213 0 216 22
225 12 6 26 25 32 43 5 17 15 32 22 32 6 0 16 8 22 17 8 16 12 15 43 -7 73
-52 96 -90 120 -199 12 -55 19 -104 16 -107 -4 -3 -15 -1 -26 5 -32 17 -69 13
-128 -15 -58 -27 -90 -63 -80 -89 11 -29 35 -28 71 3 64 57 145 52 145 -8 0
-37 -21 -50 -117 -79 -65 -19 -73 -24 -73 -46 0 -39 24 -44 106 -20 143 41
193 114 138 202 -13 21 -13 23 6 23 28 0 42 39 31 92 -36 176 -42 190 -103
247 -47 43 -126 91 -150 91 -20 0 -33 23 -73 125 -16 39 -41 89 -57 113 -16
23 -41 68 -55 100 -15 31 -42 78 -62 103 -64 83 -241 179 -329 179 -26 0 -72
7 -102 15 -30 8 -67 15 -81 15 -24 0 -27 4 -32 46 -7 70 -2 79 61 98 79 24
148 62 209 115 56 47 72 76 54 94 -8 8 -19 5 -41 -11 -16 -12 -31 -22 -34 -22
-2 0 -27 -15 -54 -34 -28 -18 -78 -43 -111 -54 l-61 -21 0 63 c0 35 -6 81 -13
102 -8 22 -17 75 -20 120 -3 44 -11 92 -16 107 -12 32 -10 32 47 10 42 -17 43
-19 40 -56 l-4 -39 82 3 c59 2 88 -1 105 -12 13 -8 57 -28 97 -44 40 -16 75
-32 78 -37 3 -4 14 -8 24 -8 10 0 53 -16 96 -35 42 -19 85 -35 95 -35 16 0
144 -42 269 -88 37 -14 93 -22 175 -27 66 -4 148 -8 183 -10 65 -4 152 11 237
40 61 21 68 27 107 83 72 105 19 257 -138 392 -27 24 -59 53 -72 66 -26 25
-214 103 -282 116 -196 37 -433 46 -665 23z m-15 -95 c0 -5 -20 -10 -45 -10
-25 0 -45 5 -45 10 0 6 20 10 45 10 25 0 45 -4 45 -10z m-370 -121 c0 -26 -3
-30 -17 -24 -10 4 -33 9 -52 12 l-34 6 44 18 c59 24 59 24 59 -12z m420 -219
c8 -5 11 -10 5 -10 -5 0 -17 5 -25 10 -8 5 -10 10 -5 10 6 0 17 -5 25 -10z
m-533 -217 c-3 -10 -5 -4 -5 12 0 17 2 24 5 18 2 -7 2 -21 0 -30z m140 -384
c15 -6 60 -15 100 -19 55 -6 92 -17 158 -51 77 -38 98 -55 156 -127 6 -7 21
-40 34 -72 13 -33 34 -74 47 -92 40 -56 78 -145 78 -184 0 -7 -48 13 -107 44
-60 30 -119 61 -133 68 -25 12 -213 44 -264 44 -25 0 -26 2 -26 54 0 126 -49
268 -110 320 l-32 26 36 0 c19 0 47 -5 63 -11z m-245 -39 c36 0 48 4 48 15 0
13 2 13 18 0 9 -9 32 -27 50 -42 18 -14 40 -39 49 -57 17 -32 43 -152 43 -196
l0 -25 -132 -1 c-122 -1 -194 -11 -328 -45 -113 -28 -165 -39 -192 -39 -37 0
-126 -25 -182 -51 -22 -10 -42 -17 -44 -15 -5 6 22 56 68 128 22 34 40 66 40
72 0 15 104 123 159 166 76 60 144 100 168 100 29 0 29 -5 -3 -42 -38 -46 -69
-115 -84 -185 -14 -70 -10 -93 19 -93 24 0 37 21 46 75 12 66 64 156 128 220
58 57 61 58 70 37 8 -18 18 -22 59 -22z m163 -390 c28 -5 68 -16 90 -23 22 -8
87 -20 145 -27 100 -11 112 -15 246 -82 142 -71 193 -102 184 -112 -3 -3 -65
19 -137 48 -73 30 -149 57 -170 61 -20 3 -59 18 -86 32 -115 58 -235 79 -362
62 -125 -16 -374 -66 -470 -95 -184 -56 -217 -64 -260 -64 -29 0 -44 4 -40 10
9 14 85 50 106 50 9 0 23 7 30 16 19 23 54 35 129 45 36 4 94 15 130 23 186
44 248 56 284 57 23 1 52 5 66 9 14 5 34 6 45 4 11 -3 43 -9 70 -14z m125
-127 c30 -9 80 -28 110 -43 30 -15 71 -31 90 -34 19 -4 93 -30 163 -59 104
-41 126 -54 120 -66 -4 -9 -8 -104 -8 -211 -1 -219 -9 -294 -36 -329 -11 -13
-19 -28 -19 -33 0 -23 -83 -117 -105 -118 -5 0 -37 -17 -71 -39 -102 -65 -233
-99 -462 -121 -94 -9 -145 -9 -229 0 -59 7 -127 14 -150 15 -64 3 -162 44
-197 83 -17 18 -54 57 -82 86 -67 69 -75 102 -73 324 1 138 4 183 16 206 12
23 14 49 10 113 -3 46 -3 83 1 83 24 1 152 33 238 59 96 30 232 61 359 81 188
30 224 31 325 3z"/>
<path d="M1609 1397 c-44 -33 -54 -135 -19 -180 40 -51 79 -45 148 22 55 54
58 94 7 139 -28 26 -43 32 -77 32 -24 0 -50 -6 -59 -13z"/>
<path d="M2471 1376 c-18 -6 -45 -25 -58 -41 -22 -25 -25 -35 -19 -79 11 -94
69 -131 139 -87 34 21 77 93 77 129 0 28 -48 80 -80 86 -14 3 -40 -1 -59 -8z"/>
<path d="M2050 1025 c-7 -9 -29 -23 -47 -30 -27 -11 -34 -20 -31 -37 2 -17 11
-24 33 -26 42 -4 118 50 113 81 -4 28 -49 35 -68 12z"/>
<path d="M2283 978 c-35 -28 -63 -57 -63 -63 0 -6 -14 -16 -31 -22 -25 -10
-30 -16 -27 -40 5 -44 56 -66 137 -58 102 9 151 44 151 107 0 61 -44 128 -84
128 -12 0 -49 -24 -83 -52z m87 -62 c0 -26 -39 -46 -89 -46 -24 1 -24 2 8 16
19 8 41 23 48 34 19 27 33 25 33 -4z"/>
<path d="M1015 1365 c-16 -9 -50 -33 -74 -54 -43 -38 -45 -42 -49 -103 -5 -87
17 -126 88 -154 48 -20 57 -20 102 -9 72 20 100 41 96 73 -4 33 -36 41 -73 16
-36 -23 -98 -23 -124 0 -36 32 -28 82 18 127 53 49 89 57 139 28 63 -37 101 1
49 49 -44 41 -120 53 -172 27z"/>
</g>
</svg>
